HIERARCHY
ROOT Hips
{
	OFFSET 0.000000 0.000000 0.000000 
	CHANNELS 6 Xposition Yposition Zposition Yrotation Zrotation Xrotation 
	JOINT Lumbar
	{
		OFFSET 0.000000 0.000000 0.000000 
		CHANNELS 3 Zrotation Xrotation Yrotation
		JOINT Neck
		{
			OFFSET 0.000000 0.445665 0.000000 
			CHANNELS 3 Zrotation Xrotation Yrotation
			End Site
			{
				OFFSET 0.000000 0.227535 0.000000 
			}
		}
		JOINT RightShoulder
		{
			OFFSET 0.019635 0.377685 0.194865 
			CHANNELS 3 Zrotation Xrotation Yrotation
			JOINT RightElbow
			{
				OFFSET 0.000000 -0.243375 0.000000 
				CHANNELS 2 Zrotation Yrotation
				JOINT RightWrist
				{
					OFFSET 0.000000 -0.264825 0.000000 
					CHANNELS 2 Zrotation Xrotation
					End Site
					{
						OFFSET 0.006600 -0.176220 0.000990 
					}
				}
			}
		}
		JOINT LeftShoulder
		{
			OFFSET 0.019635 0.377685 -0.194865 
			CHANNELS 3 Zrotation Xrotation Yrotation
			JOINT LeftElbow
			{
				OFFSET 0.000000 -0.243375 0.000000 
				CHANNELS 2 Zrotation Yrotation
				JOINT LeftWrist
				{
					OFFSET 0.000000 -0.264825 0.000000 
					CHANNELS 2 Zrotation Xrotation
					End Site
					{
						OFFSET 0.006600 -0.176220 -0.000990 
					}
				}
			}
		}
	}
	JOINT RightHip
	{
		OFFSET 0.052140 -0.069960 0.075570 
		CHANNELS 3 Zrotation Xrotation Yrotation
		JOINT RightKnee
		{
			OFFSET 0.000000 -0.402270 0.000000 
			CHANNELS 1 Zrotation
			JOINT RightAnkle
			{
				OFFSET 0.000000 -0.404085 0.000000 
				CHANNELS 3 Zrotation Xrotation Yrotation
				End Site
				{
					OFFSET 0.204105 -0.089430 0.008415 
				}
			}
		}
	}
	JOINT LeftHip
	{
		OFFSET 0.052140 -0.069960 -0.075570 
		CHANNELS 3 Zrotation Xrotation Yrotation
		JOINT LeftKnee
		{
			OFFSET 0.000000 -0.402270 0.000000 
			CHANNELS 1 Zrotation
			JOINT LeftAnkle
			{
				OFFSET 0.000000 -0.404085 0.000000 
				CHANNELS 3 Zrotation Xrotation Yrotation
				End Site
				{
					OFFSET 0.204105 -0.089430 -0.008415 
				}
			}
		}
	}
}
MOTION
Frames: 11
Frame Time: 0.02
0.00241 0.00035 -8e-05 17.06857 -29.0619 -6.7868 47.55727 0.39794 -8.14964 -2.71638 6.41541 -1.16257 -36.52788 -6.04726 -5.66835 24.69852 60.67046 -4.26653 -2.99073 -49.38128 18.24883 -1.14019 47.28931 -106.57911 17.03808 -2.04754 42.68001 0.43483 -10.37799 -18.99228 -6.29428 -1.28606 -2.84856 45.74382 6.77328 18.76325 -25.37954 -6.30276 1.01904 2.70888
0.00192 0.00028 4e-05 17.12002 -29.02951 -6.75731 47.53515 0.43552 -8.16099 -2.69581 6.29002 -1.16387 -35.76656 -6.06052 -6.84756 24.99578 66.74994 -2.53473 -2.01485 -48.46946 18.17313 -1.40986 47.17894 -106.62858 17.0409 -2.0616 42.67683 0.39432 -10.45418 -19.00134 -6.29161 -1.28642 -2.84869 45.78772 6.55778 17.90885 -25.37906 -6.28993 1.09183 2.74702
0.00144 0.00022 0.00015 17.1715 -28.99715 -6.72784 47.51299 0.47308 -8.17224 -2.67524 6.16479 -1.16517 -35.00652 -6.07488 -8.02133 25.29288 72.803 -0.81049 -1.04318 -47.55745 18.0976 -1.68009 47.069 -106.67254 17.04106 -2.07472 42.67363 0.35386 -10.53011 -19.01037 -6.28894 -1.28679 -2.84884 45.83148 6.34288 17.05718 -25.37856 -6.27715 1.16439 2.78502
0.00096 0.00015 0.00026 17.22282 -28.96485 -6.69843 47.49093 0.51055 -8.18354 -2.65473 6.03976 -1.16646 -34.24739 -6.08828 -9.19658 25.58937 78.86226 0.91554 -0.07054 -46.64796 18.02215 -1.94919 46.95892 -106.72065 17.04329 -2.08853 42.67046 0.31347 -10.60605 -19.0194 -6.28627 -1.28714 -2.84897 45.87524 6.12804 16.20542 -25.37808 -6.26435 1.23696 2.82304
0.00048 8e-05 0.00038 17.27403 -28.93256 -6.66902 47.46891 0.54804 -8.19496 -2.63421 5.91466 -1.16776 -33.48734 -6.10015 -10.37805 25.88568 84.95151 2.65016 0.90687 -45.73973 17.94647 -2.21709 46.84854 -106.7772 17.04958 -2.10377 42.66733 0.27304 -10.68229 -19.02846 -6.28361 -1.28748 -2.8491 45.91917 5.91262 15.3509 -25.3776 -6.25151 1.30977 2.86119
-0 2e-05 0.00049 17.32608 -28.90004 -6.63942 47.44645 0.58573 -8.20585 -2.61354 5.78915 -1.16906 -32.72736 -6.11975 -11.53563 26.18441 90.92859 4.35262 1.86646 -44.81983 17.87123 -2.49213 46.73964 -106.79524 17.03712 -2.11256 42.664 0.23252 -10.75758 -19.03743 -6.28092 -1.28791 -2.84928 45.96255 5.69883 14.50528 -25.37708 -6.23885 1.3818 2.89889
-0.00048 -5e-05 0.00061 17.37638 -28.868 -6.61025 47.42497 0.62292 -8.21782 -2.59322 5.66462 -1.17033 -31.9682 -6.12374 -12.73966 26.47805 97.12249 6.11724 2.86052 -43.92452 17.79538 -2.75281 46.62744 -106.88822 17.06126 -2.13384 42.66104 0.19227 -10.83462 -19.04657 -6.2783 -1.28816 -2.84936 46.00695 5.48203 13.6427 -25.37665 -6.22584 1.45532 2.93744
-0.00096 -0.00011 0.00072 17.4283 -28.83555 -6.58065 47.40248 0.66069 -8.22872 -2.57255 5.53919 -1.17166 -31.20803 -6.14219 -13.90146 26.77621 103.12065 7.82577 3.82343 -43.00637 17.71972 -3.02616 46.51909 -106.91673 17.05374 -2.14446 42.6578 0.15169 -10.91019 -19.05555 -6.27561 -1.28856 -2.84952 46.05047 5.26794 12.79574 -25.37613 -6.21315 1.52746 2.97522
-0.00146 -0.00018 0.00083 17.48221 -28.80246 -6.55065 47.37914 0.69872 -8.23861 -2.55155 5.41254 -1.17296 -30.44712 -6.17831 -15.00943 27.08082 108.86401 9.46118 4.74589 -42.06004 17.64575 -3.31763 46.41222 -106.84709 16.99872 -2.13849 42.65396 0.11098 -10.9834 -19.06433 -6.27281 -1.2892 -2.84982 46.09269 5.0573 11.96761 -25.3755 -6.20083 1.59796 3.01205
-0.0019 -0.00024 0.00096 17.52472 -28.77265 -6.52331 47.36182 0.73393 -8.25521 -2.53274 5.29252 -1.17413 -29.69194 -6.11276 -16.42048 27.35113 116.02671 11.50359 5.89395 -41.27496 17.56644 -3.51281 46.28711 -107.28388 17.19049 -2.21726 42.6528 0.07185 -11.06853 -19.07427 -6.27058 -1.28865 -2.84943 46.14171 4.82722 11.03032 -25.37553 -6.18632 1.67802 3.05431
-0.00245 -0.00032 0.00104 17.59124 -28.73617 -6.49015 47.33112 0.77592 -8.25706 -2.50914 5.15882 -1.17573 -28.92389 -6.26156 -17.19643 27.6919 120.22507 12.69619 6.57065 -40.15066 17.49562 -3.90588 46.20671 -106.69006 16.8788 -2.12419 42.64649 0.02886 -11.12957 -19.08175 -6.26722 -1.29048 -2.85044 46.17685 4.63793 10.32391 -25.37414 -6.17649 1.73784 3.08512
